<svg xmlns="http://www.w3.org/2000/svg"  viewBox="0 0 64 64" width="128px" height="128px"><path fill="#ffefca" d="M58,13v38c0,3.85-3.15,7-7,7H13c-3.85,0-7-3.15-7-7V13c0-3.85,3.15-7,7-7h38C54.85,6,58,9.15,58,13 z"/><path fill="#836c9b" d="M51,6H13c-3.85,0-7,3.15-7,7v38c0,3.85,3.15,7,7,7h38c3.85,0,7-3.15,7-7V13C58,9.15,54.85,6,51,6z M13,56c-2.77,0-5-2.23-5-5V13c0-2.77,2.23-5,5-5h38c2.77,0,5,2.23,5,5v38c0,2.77-2.23,5-5,5H13z"/><path fill="#836c9b" d="M47,48c-0.552,0-1,0.448-1,1v2c0,0.552,0.448,1,1,1s1-0.448,1-1v-2C48,48.448,47.552,48,47,48z M52,52c0.552,0,1-0.448,1-1v-2c0-0.552-0.448-1-1-1s-1,0.448-1,1v2C51,51.552,51.448,52,52,52z M32,48c-0.552,0-1,0.448-1,1v2 c0,0.552,0.448,1,1,1c0.552,0,1-0.448,1-1v-2C33,48.448,32.552,48,32,48z M27,48c-0.552,0-1,0.448-1,1v2c0,0.552,0.448,1,1,1 s1-0.448,1-1v-2C28,48.448,27.552,48,27,48z M22,48c-0.552,0-1,0.448-1,1v2c0,0.552,0.448,1,1,1s1-0.448,1-1v-2 C23,48.448,22.552,48,22,48z M17,48c-0.552,0-1,0.448-1,1v2c0,0.552,0.448,1,1,1s1-0.448,1-1v-2C18,48.448,17.552,48,17,48z M12,52 c0.552,0,1-0.448,1-1v-2c0-0.552-0.448-1-1-1s-1,0.448-1,1v2C11,51.552,11.448,52,12,52z M42,48c-0.552,0-1,0.448-1,1v2 c0,0.552,0.448,1,1,1s1-0.448,1-1v-2C43,48.448,42.552,48,42,48z M37,48c-0.552,0-1,0.448-1,1v2c0,0.552,0.448,1,1,1s1-0.448,1-1 v-2C38,48.448,37.552,48,37,48z"/><path fill="#836c9b" d="M31.053,36.212c-5.397,0-9.788-4.981-9.788-11.105S25.656,14,31.053,14s9.788,4.982,9.788,11.106 S36.45,36.212,31.053,36.212z M31.053,16c-4.294,0-7.788,4.085-7.788,9.106c0,5.021,3.494,9.105,7.788,9.105 c4.294,0,7.788-4.085,7.788-9.105C38.841,20.085,35.348,16,31.053,16z"/><path fill="#836c9b" d="M32,45c-3.986,0-7.632-2.176-8.669-5.173c-0.181-0.522,0.096-1.092,0.618-1.272 c0.521-0.18,1.091,0.097,1.272,0.618C25.976,41.354,28.89,43,32,43c3.372,0,7-2.19,7-7l-0.027-20.026 c-0.001-0.552,0.446-1,0.999-1.001c0,0,0.001,0,0.001,0c0.552,0,0.999,0.447,1,0.999L41,35.999C41,41.908,36.473,45,32,45z"/></svg>